<?xml version="1.0" encoding="UTF-8"?><svg id="a" xmlns="http://www.w3.org/2000/svg" viewBox="0 0 612 792"><defs><style>.b{fill:#d06397;}</style></defs><path class="b" d="M503.59959,430.1602c-19.1445,.1015-35.72659,4.6972-49.6269,11.5488-5.084-10.1465-10.2286-19.0723-11.0928-25.709-1.0088-7.748-2.1787-12.3701-.96-21.6001,1.2188-9.23,6.5586-22.3008,6.4805-23.2798s-1.1973-5.6806-12.2402-5.7602c-11.043-.0796-20.4883,2.124-21.5997,5.04-1.1123,2.916-3.2382,9.4775-4.56049,16.3198-1.93461,10.0132-22.04691,45.7227-33.46781,64.4053-3.7343-7.291-6.9101-13.7207-7.57219-18.8047-1.00881-7.748-2.17871-12.3701-.96-21.6006,1.21879-9.2295,6.55859-22.3008,6.48049-23.2798-.0782-.979-1.1973-5.6801-12.2403-5.7602-11.0429-.0796-20.48819,2.124-21.5996,5.04-1.1123,2.916-2.2988,9.7285-4.5605,16.3203-2.2627,6.5918-28.99809,66.1602-36,81.6006-3.5684,7.8672-6.6734,14.1865-8.8653,18.5039l-.0146-.0244s-.1343,.2871-.36719,.7725c-1.87651,3.6738-2.99321,5.707-2.99321,5.707l.0328,.0762c-1.4883,2.6982-3.083,5.2041-3.87259,5.2041-.55221,0-1.65771-7.1826,.24019-17.0401,3.9781-20.664,13.5357-52.8906,13.44-54-.0493-.5693,1.77681-6.1845-6.2403-9.1201-7.79289-2.8525-10.5683,1.9053-11.2797,1.9199-.6885,.0147-1.20019,1.6807-1.20019,1.6807,0,0,8.68209-36.2402-16.56011-36.2402-15.7812,0-37.64789,17.2637-48.4204,32.9111-6.7974,3.708-21.3447,11.6494-36.7793,20.1289-5.9277,3.2569-11.9766,6.585-17.7129,9.7451-.3901-.4316-.7783-.8642-1.1797-1.2929-30.6074-32.6543-87.1885-55.752-84.7876-99.6524,.8726-15.9599,6.4204-57.9844,108.7202-108.9599,83.8008-41.7579,150.8868-30.2671,162.4805-4.8003,16.5615,36.3833-35.8545,104.0053-122.8809,113.7602-33.1577,3.7168-50.6171-9.1338-54.9599-13.9199-4.5713-5.0386-5.2529-5.2656-6.96-4.3203-2.7807,1.5405-1.0185,5.9892,0,8.6401,2.5987,6.7627,13.2608,18.7544,31.44,24.7202,15.9917,5.2476,54.9214,8.1304,102-10.08,52.7299-20.396,93.9038-77.1348,81.81-124.5601-12.2988-48.2349-92.2763-64.0918-167.9697-37.2002-45.0483,16.0044-93.8159,41.1226-128.87989,73.9204-41.6914,38.9961-48.3398,72.9375-45.6006,87.1196,9.7339,50.3912,79.189,83.2056,107.0015,107.5259-1.3726,.7569-2.6597,1.4678-3.8306,2.1143-13.9443,6.8974-66.8877,34.6045-80.1308,63.8799-15.0215,33.207,2.3916,57.0322,13.9199,60.2402,35.7187,9.9385,72.3721-7.9385,92.0703-37.3193,19.6938-29.3741,17.2886-67.6221,8.25-85.0811-.1123-.2168-.2363-.4287-.3516-.6445,3.6006-2.1309,7.2725-4.2979,10.9117-6.4346,7.0966-4.167,14.0625-8.0547,20.1088-11.3447-3.3818,9.2685-5.8598,20.3789-7.14889,36.4238-1.5141,18.8496,6.21049,43.2149,16.31979,52.8008,4.45121,4.2197,9.80621,4.3193,13.20021,4.3193,11.76269,0,17.13039-9.7861,23.04009-21.3603,7.2485-14.1953,13.6797-30.7198,13.6797-30.7198,0,0-8.0723,44.6397,13.9204,44.6397,8.0132,0,16.0747-10.3906,19.6645-15.6885l.0152,.0889s.2085-.3447,.6167-1.0371c.8325-1.2725,1.3032-2.0821,1.3032-2.0821,0,0,.0161-.0839,.042-.2304,3.22121-5.5928,10.3647-18.3438,21.0786-39.3701,13.8418-27.167,27.1191-61.2002,27.1191-61.2002,0,0,1.2354,8.3203,5.2803,22.08,2.3799,8.0957,7.4356,17.045,11.4248,25.627-3.2109,4.4551-5.18459,7.0137-5.18459,7.0137,0,0,.01859,.0468,.05379,.1328-2.5665,3.4062-5.4434,7.082-8.4532,10.666-10.9248,13.0127-23.9375,27.8711-25.68059,32.1602-2.05281,5.0527-1.56741,8.7705,2.39939,11.7597,2.8984,2.1846,8.05761,2.5235,13.4404,2.1602,9.8174-.6602,16.7256-3.0948,20.1338-4.5781,5.3135-1.879,11.5-4.834,17.3066-9.1016,10.71781-7.8789,17.1817-19.1504,16.5606-34.0801-.34379-8.2285-2.96779-16.3828-6.2871-24.082,.9726-1.3985,1.9482-2.8086,2.9258-4.2383,16.89551-24.6992,30-51.8398,30-51.8398,0,0,1.2353,8.3203,5.2812,22.08,2.0469,6.9649,6.0859,14.5625,9.7178,22.0137-15.8858,12.9082-25.7383,27.9063-29.1592,37.7461-6.3242,18.1973-1.3711,26.4434,7.9209,28.3203,4.209,.8506,10.1533-1.0781,14.625-2.9707,5.5644-1.8457,12.25-4.918,18.4951-9.5088,10.7178-7.8789,21.0215-18.9111,20.4004-33.8408-.2842-6.7969-2.1269-13.543-4.6279-20.0234,13.4658-5.6094,30.9013-8.7286,53.1074-6.1358,47.6406,5.5635,56.9863,35.3096,55.2002,47.7598-1.7871,12.4502-11.7793,19.2939-15.1211,21.3603-3.3398,2.0664-4.3594,2.7832-4.0791,4.3203,.4062,2.2344,1.9512,2.1485,4.79981,1.668,3.92189-.6621,25.01659-10.1269,25.91989-33.1084,1.1465-29.1758-26.8066-61.2236-76.3203-60.9599Zm-367.20999,123.7988c-15.7797,17.2148-37.8261,23.7207-47.2797,18.2402-10.208-5.9189-6.1651-31.2627,13.1997-49.5303,11.8032-11.1337,27.04-21.3876,37.1479-27.7031,2.2998-1.3847,5.6797-3.417,9.7871-5.8779,.6807-.3887,1.065-.6035,1.065-.6035l-.0152-.0254c.793-.4746,1.605-.961,2.4444-1.4629,7.0459,26.0029,.2138,48.8945-16.3492,66.9629Zm114.96-78.1524c-5.49559,13.3985-16.999,47.6778-24,45.8409-6.0098-1.5772-9.6704-27.6348-1.1997-53.2803,4.2632-12.9082,13.3696-28.334,18.7197-34.3203,8.6128-9.6348,18.0957-12.7852,20.3999-8.8789,2.937,4.9765-10.4736,42.2392-13.9199,50.6386Zm94.9785,45.3184c-2.33009,1.2188-4.4668,1.9844-5.459,1.3936-.7285-.4346,.961-2.0401,.961-2.0401,0,0,11.8808-12.7803,16.5595-18.5996,2.7217-3.3848,5.878-7.4014,9.31741-11.8945,.02739,.4492,.043,.8945,.043,1.334-.03521,15.3125-14.82621,25.6504-21.42191,29.8066Zm73.168-16.6797c-1.7383-1.2363-1.4492-5.2344,4.2666-17.6865,2.2441-4.8897,7.36431-13.1201,16.2646-20.9863,1.0313,3.2353,1.6602,6.3369,1.6426,9.2255-.1152,19.2657-13.8613,26.461-22.1738,29.4473Z"/></svg>